<svg xmlns="http://www.w3.org/2000/svg" viewBox="0 0 18 18" width="18" height="18">
  <!-- SnapDog menu bar icon — dog head silhouette (template image) -->
  <path fill="black" d="M4.5 2C3.5 2 2.5 3 2.5 4.5L2 7.5C2 8.5 2.5 9.5 3.5 10L3.5 13C3.5 14 4 15 5 15.5L6 16H12L13 15.5C14 15 14.5 14 14.5 13L14.5 10C15.5 9.5 16 8.5 16 7.5L15.5 4.5C15.5 3 14.5 2 13.5 2L12 3.5C11 2.5 10 2 9 2C8 2 7 2.5 6 3.5L4.5 2ZM6.5 8.5C7.2 8.5 7.5 9 7.5 9.5C7.5 10 7.2 10.5 6.5 10.5C5.8 10.5 5.5 10 5.5 9.5C5.5 9 5.8 8.5 6.5 8.5ZM11.5 8.5C12.2 8.5 12.5 9 12.5 9.5C12.5 10 12.2 10.5 11.5 10.5C10.8 10.5 10.5 10 10.5 9.5C10.5 9 10.8 8.5 11.5 8.5ZM8 12H10C10 12.8 9.5 13.5 9 13.5C8.5 13.5 8 12.8 8 12Z"/>
</svg>
