<?xml version="1.0" encoding="UTF-8"?>
<svg id="Ebene_1" xmlns="http://www.w3.org/2000/svg" version="1.1" viewBox="0 0 18 18">
  <!-- Generator: Adobe Illustrator 30.4.0, SVG Export Plug-In . SVG Version: 2.1.4 Build 226)  -->
  <path d="M7.1,8.67c0-.06-.03-.12-.06-.18l-.78-1.36-.96-.18c-.12-.02-.2.03-.27.12-.24.31-.47.59-.74.87s-.12.19-.23.23l.16-.57.25-.84,1.49-1.18,1.58-.35,1.17,2.17-.17.55-1.12.64c-.09.05-.22.12-.31.08h0Z"/>
  <path d="M10.18,16.7l-3.22,1.3,1.57-2.22,2.47-1.22c.11-.06.18-.15.34-.16l-.03,1.2-.03.61-1.09.49h0Z"/>
  <path d="M16.32,12.4l-.47-.45c2-2.07,1.99-5.26.01-7.35l.44-.44c.54.58,1.01,1.21,1.29,1.96.82,2.18.38,4.6-1.29,6.28h0Z"/>
  <path d="M8.96,6.35l-.67-2.54c0-.18.06-.4.11-.58l.41-1.52c.07-.27.23-.48.38-.74.06.12.17.22.19.35l.6,3.65-.44,1.36c-.03.11-.25.23-.35.25-.11,0-.19-.15-.22-.23h0Z"/>
  <path d="M10.52,5.82l-.21-.62c-.02-.06-.04-.11-.08-.13.02-.07.04-.14.03-.24l-.21-1.24-.38-2.36-.44-.76c-.21.18-.26.41-.39.61s-.27.51-.32.82l-.18,1.25s.01.08.06.07c-.05.17-.1.39-.11.58l.67,2.54-1.16-1.33.06-.48.15-.94c.12-.75.19-1.5.42-2.23l.62-1.29c.14-.29.38.26.78.57l.53,1.85.78,2.66-.25.79c-.12-.02-.3-.05-.37-.13h0Z"/>
  <path d="M10.32,12.8s-.03.04-.01.06l-1.08.55-1.68.82c-.09.04-.19.09-.21.18,0-.26-.35-.32-.79-.67s-.31-.17-.43-.36l.7-.79c.07-.08.14-.14.12-.23.41-.02.81-.16,1.24-.29l2.15.72h0Z"/>
  <path d="M7.33,14.41c.02-.09.12-.14.21-.18l1.68-.82,1.08-.55-.47.72-1.97,2.7-1.13,1.54.6-3.41h0Z"/>
  <path d="M4.46,6.75l-.25.84-.41-.05v.36c-.02.13-.11.38-.01.47.13.07.23-.13.26-.21.11-.04.15-.14.23-.23.27-.28.5-.56.74-.87.06-.09.15-.14.27-.12l.96.18.78,1.36c.04.07.06.13.06.18l-1.54-.83.11-.23-.48-.25-.36.93c-.06.14-.1.38-.22.45l-2.1,1.33-.62.39s-.05.06-.06.09c-.1,0-.18.04-.31,0l-.54-.2.36-.25,2.3-1.39.13-1.24.69-.71h0Z"/>
  <path d="M8.97,15.23l1.26-1.81.4-.57-.25-1.1c.11-.11.27.02.38.03l.79-.34.53.81-.47,1.64-1.35.7c-.43.21-.78.48-1.31.64h0Z"/>
  <path d="M14.79,10.91c1.07-1.09,1.36-2.67.79-4.08-.19-.46-.43-.83-.78-1.18l.47-.45c1.67,1.71,1.67,4.45,0,6.16-.13-.16-.25-.29-.48-.46h0Z"/>
  <path d="M9.03,11.24l.32.38.64.72c.11.12.2.26.34.32,0,.05.04.1,0,.14l-2.15-.72c-.43.13-.82.27-1.24.29-.19-.36-.35-.72-.48-1.09l1.61.75-.52-2.18-.18-.61-.07-.12c.25.14.58.26.82.46l.73,1.41c.06.12.13.16.19.24h0Z"/>
  <path d="M11.64,5.61l.75.29c.09.03.19.05.27.12l-.51,1.61.3.74-.57,1.6c-.03.07-.12.14-.18.17l-.73.4-1.09-.38-.4-.87.53-1.65.84-.48.51-1.61.28.07h0ZM11.9,7.43l.39-1.24-.74-.27-.38,1.27.72.23h0ZM9.81,9.25c.06.2.14.47.29.64l.7.3c.09.04.2.03.28-.02l.54-.31.51-1.45c.04-.11-.06-.21-.09-.29l-.17-.38-.89-.32-.72.43-.46,1.4h0Z"/>
  <path d="M10.37,7.13c0-.08,0-.14-.08-.19s-.15-.05-.23,0l-.5.32c-.06.04-.08.08-.11.17l-.62,1.98.61,1.18,1.31.44,1.31-.69.72-2.05-.3-.78c-.05-.12.07-.27.11-.39l.51,1.17-.79,2.24-1.56.82-1.52-.52-.73-1.42.73-2.32.54-.34.68-.42c.1-.06.29-.12.35,0-.11.56-.07.59-.43.79v.02Z"/>
  <path d="M6.65,8.76c.02.07,0,.13-.05.2l-.54.98-.11.25s-.03.11,0,.17l.4.88-1.18-.25-.85-.67s-.04-.07-.05-.08l.36-.92c.04-.12.08-.21.18-.26l.82-.07.82-.31c.08-.03.14.04.19.07h0Z"/>
  <path d="M6.45,11.27l-.09-.03-.4-.88c-.03-.06-.02-.12,0-.17l.68-.56.66-.52.07.12.18.61.52,2.18-1.61-.75h0Z"/>
  <path d="M13.07,12.57l-.54-.74-.47-.66.59-.37.35-.97.54,1.36.96,2.36c-.17,0-.22-.14-.33-.21l-1.09-.77h0Z"/>
  <path d="M12.58,5.35l-.8-.31-.35-.14.02-1.14-.46-1.24-.42-.36c-.09-.17-.13-.33-.17-.55l1.42.63.73.66.41,1.25-.11,1.26c-.09,0-.19-.03-.27-.06h0ZM11.76,4.62s0,.1.03.11l.8.3.04-.85-.38-1.19-.52-.42c-.13-.11-.3-.18-.47-.25l.51,1.41-.03.89h0Z"/>
  <path d="M13.74,9.81c.9-.91.85-2.17,0-3.11l.44-.44c1.1,1.06,1.14,2.77.13,3.9-.03.03-.05.1-.08.12s-.09-.01-.13-.05l-.37-.41h0Z"/>
  <path d="M7.36,4.97c-.27.08-.55.17-.83.18s-.07-.23-.09-.3l-.89-4.03c.67,1.23,1.24,2.44,1.81,3.68.06.13,0,.3,0,.47h0Z"/>
  <path d="M5.38,15.96c.13,0,.19-.11.28-.19l.62-.57.8-.68-.62,3.41-.99-1.7c-.05-.09-.09-.17-.1-.27h0Z"/>
  <path d="M4.82,9.07c-.11.05-.14.15-.18.26l-.36.92-.74.09c-.59.07-1.15.18-1.71.22,0-.03.03-.07.06-.09l.62-.39,2.1-1.33c.03.09.02.2.08.28s.11.03.15.03h0Z"/>
  <path d="M7.08,14.52l-.8.68-.62.57c-.09.09-.16.2-.28.19l.27-1.77-.19-.57c.22-.11.43-.02.61.11l.98.69s.03.06.03.11h0Z"/>
  <path d="M5.88,5.3l-.69-1.25c-.04-.08-.09-.14-.16-.16l.04-.69.17-1.53c.01-.12.01-.25.12-.35l.62,3.17c.06.28.12.64-.09.81h0Z"/>
  <path d="M5.34,13.49l-2.5.21c-.3-.03-.59-.24-.85-.36s-.5-.08-.58-.55l1.45.45c.37-.14.73-.12,1.13-.05l1.05.18.31.11h0Z"/>
  <path d="M0,10.96l.85.09s.44-.2.5-.26.03-.06.05-.08c.18.2.17.55-.05.74-.2.42-.66-.37-.83-.14s.13.5.52.51c-.02.15-.11.18-.19.21s-.17,0-.26-.06c-.37-.2-.47-.58-.59-1.02h0Z"/>
  <path d="M5.88,5.3l-.71.6c-.09-.38-.09-.74-.11-1.13l-.03-.88c.08.02.12.09.16.16l.69,1.25h0Z"/>
  <path d="M9.55,7.26l.24.19-.49,1.61c-.11.35-.29.18-.48.35l.62-1.98c.03-.09.05-.13.11-.17Z"/>
  <path d="M10.32,12.66c-.14-.07-.23-.2-.34-.32l-.64-.72-.32-.38c.14-.03.26.05.39.09l.68.26.22,1.08h0Z"/>
  <path d="M7.29,9.13l-.66.52-.68.56.11-.25.54-.98c.04-.07.07-.13.05-.2l.64.36h0Z"/>
  <polygon points="12.58 5.35 12.39 5.9 11.64 5.61 11.78 5.05 12.58 5.35"/>
  <path d="M1.4,10.72s-.03.06-.05.08c-.06.05-.46.26-.5.26l-.85-.09c.19-.18.45-.32.7-.46l.69.22h0Z"/>
  <path d="M5.6,12.96h-1.46l1.38-.42c.14-.04.28.02.38.11l-.3.31h0Z"/>
  <path d="M7.14,3.31c-.1-.11-.11-.2-.17-.34l1-.86c-.02.14-.02.33-.1.45l-.73.74h0Z"/>
  <path d="M10.52,5.82c-.19.13-.39.26-.62.32l.33-1.08s.06.07.08.13l.21.62h0Z"/>
  <path d="M10.37,7.13l-.57.33-.24-.19.5-.32c.09-.06.17-.05.23,0s.08.12.08.19h0Z"/>
  <path d="M6.12,8.49c-.17.09-.3.19-.47.2s-.17-.13-.19-.2.03-.2.09-.31l.58.31Z"/>
  <path d="M1.35,12.72c-.05.12-.1.19-.23.26l-.49-.74.71.48h0Z"/>
  <polygon points="14.5 13.86 11.5 16.08 12.96 12.82 14.5 13.86"/>
  <path d="M4.22,7.59l-.16.57c-.02.09-.13.28-.26.21-.1-.09,0-.34,0-.47v-.36s.42.05.42.05Z"/>
  <path d="M12.04,8.12c.03.08.13.18.09.29l-.51,1.45-.54.31c-.08.04-.18.06-.28.02l-.7-.3c-.15-.17-.23-.44-.29-.64l2.11-1.11s.08-.03.12-.01h0Z"/>
  <path d="M12.04,8.12s-.08,0-.12.01l-2.11,1.11.46-1.4.72-.43.89.32.17.38h0Z"/>
  <polygon points="11.9 7.43 11.18 7.19 11.55 5.92 12.29 6.19 11.9 7.43"/>
  <path d="M12.64,4.18c-.28.16-.57.34-.88.44l.03-.89-.51-1.41c.17.07.34.14.47.25l.52.42.38,1.19h0Z"/>
  <path d="M11.76,4.62c.31-.1.6-.28.88-.44l-.04.85-.8-.3s-.04-.08-.03-.11Z"/>
</svg>