<svg xmlns="http://www.w3.org/2000/svg" viewBox="0 0 18 18" width="18" height="18">
  <!-- SnapDog menu bar icon — stylized dog head matching logo proportions -->
  <!-- Pointed ears, angular snout, alert posture -->
  <path fill="black" fill-rule="evenodd" d="M5 1.5L3.5 5.5C3.2 6.3 3 7 3 7.5C3 8.5 3.5 9.5 4.5 10V10.5C4.5 12 5 13.5 6.5 14.5L7.5 15H10.5L11.5 14.5C13 13.5 13.5 12 13.5 10.5V10C14.5 9.5 15 8.5 15 7.5C15 7 14.8 6.3 14.5 5.5L13 1.5L11 4C10.3 3.3 9.7 3 9 3C8.3 3 7.7 3.3 7 4L5 1.5ZM7 8.5C7.6 8.5 8 9 8 9.5C8 10 7.6 10.5 7 10.5C6.4 10.5 6 10 6 9.5C6 9 6.4 8.5 7 8.5ZM11 8.5C11.6 8.5 12 9 12 9.5C12 10 11.6 10.5 11 10.5C10.4 10.5 10 10 10 9.5C10 9 10.4 8.5 11 8.5ZM8 12.5H10L9.5 13.5H8.5L8 12.5Z"/>
</svg>
