<?xml version="1.0" encoding="UTF-8"?>
<svg id="Ebene_1" xmlns="http://www.w3.org/2000/svg" version="1.1" viewBox="0 0 595.3 595.3">
  <!-- Generator: Adobe Illustrator 30.3.0, SVG Export Plug-In . SVG Version: 2.1.3 Build 182)  -->
  <path d="M254.2,217c0-1.4-.6-2.8-1.5-4.3l-18.1-31.8-22.3-4.3c-2.7-.5-4.7.7-6.2,2.7-5.5,7.2-11,13.9-17.2,20.5s-2.8,4.4-5.3,5.3l3.7-13.3,5.7-19.6,34.6-27.6,36.6-8.1,27.1,50.9-3.9,12.9-26,14.9c-2.1,1.2-5.1,2.9-7.2,1.8Z" fill="#804117"/>
  <path d="M325.7,405.4l-74.6,30.6,36.4-52,57.2-28.6c2.6-1.3,4.2-3.6,7.8-3.7l-.8,28.1-.7,14.3-25.3,11.4Z" fill="#804117"/>
  <path d="M467.9,304.6l-10.8-10.5c46.3-48.5,46.2-123.4.3-172.4l10.3-10.4c12.5,13.6,23.3,28.3,29.9,45.9,19,51.1,8.9,108-29.8,147.3Z" fill="#e1882e"/>
  <path d="M297.3,162.6l-15.6-59.7c0-4.3,1.4-9.4,2.5-13.5l9.5-35.7c1.7-6.3,5.4-11.2,8.8-17.3,1.3,2.7,3.9,5.1,4.4,8.2l13.8,85.7-10.2,31.9c-.8,2.6-5.7,5.4-8.1,5.9-2.5,0-4.5-3.5-5-5.5Z" fill="#bc631a"/>
  <path d="M333.5,150.3l-4.9-14.6c-.5-1.5-.9-2.6-1.8-3.1.5-1.7,1-3.2.6-5.6l-4.9-29.1-8.9-55.3-10.3-17.9c-4.8,4.2-6,9.6-9,14.4s-6.3,11.9-7.4,19.2l-4.1,29.4c-.2,1.1.3,1.9,1.3,1.7-1.1,4-2.4,9.2-2.5,13.5l15.6,59.7-27-31.1,1.5-11.2,3.4-22c2.7-17.7,4.4-35.3,9.8-52.4l14.4-30.3c3.3-6.9,8.9,6.2,18.1,13.3l12.4,43.5,18,62.4-5.8,18.6c-2.7-.5-6.9-1.1-8.6-3.1Z" fill="#804117"/>
  <path d="M328.8,314.1c-.3.2-.7,1-.3,1.5l-25.1,12.8-38.9,19.2c-2.1,1-4.5,2.1-4.9,4.2,0-6.2-8.2-7.4-18.4-15.7s-7.3-4-10-8.4l16.3-18.5c1.6-1.8,3.2-3.3,2.7-5.4,9.6-.5,18.7-3.7,28.7-6.8l49.8,17Z" fill="#804117"/>
  <path d="M556.9,509.8l-25.3-.2c-.8-3.1-.7-6.2,0-9.7l34.7-.3c2,0,3.3,1.5,3.3,3.5v22c0,5.5-4.1,9.5-9.8,9.5h-40.2c-9.1,0-16.4-6.4-17.7-15.5-1.3-9.3-1.4-18.8.1-28.1,1.6-9.8,9.5-16.1,19.3-16.1l47.1-.3c.8,4.3.7,7.9.1,12.1l-43,.3c-6.3,0-10.9,4.2-10.9,10.4v16.4c0,5.5,4.2,9.5,9.8,9.6l28.5.2c2.2,0,4-1.7,3.9-3.7v-9.9Z" fill="#cfcece"/>
  <path d="M259.7,351.8c.4-2.1,2.8-3.2,4.9-4.2l38.9-19.2,25.1-12.8-11,16.8-45.6,63.3-26.1,36.1,13.8-79.9Z" fill="#bc631a"/>
  <path d="M193.1,172.1l-5.7,19.6-9.4-1.2-.3,8.4c-.1,3-2.2,8.9,0,11,3,1.6,5.4-3,6-4.9,2.5-.9,3.5-3.4,5.3-5.3,6.2-6.6,11.7-13.2,17.2-20.5,1.5-2.1,3.5-3.2,6.2-2.7l22.3,4.3,18.1,31.8c.9,1.6,1.5,3,1.5,4.3l-35.6-19.4,2.5-5.3-11.2-5.9-8.4,21.9c-1.3,3.4-2.4,8.8-5.2,10.6l-48.6,31.1-14.4,9.2c-.7.4-1.2,1.4-1.3,2-2.3.2-4.2,1-7.1-.1l-12.5-4.6,8.4-5.9,53.2-32.7,3.1-29.2,16.1-16.6Z" fill="#bc631a"/>
  <path d="M407.6,518.7c-1.8,9.4-8.8,15.6-18.1,15.7l-48.6.4v-60.1c-.1,0,47.1.1,47.1.1,10,0,17.4,6.5,19.5,16.1,1.5,9.1,1.5,18.2.1,27.8ZM395,513.2v-15.7c-.3-6.2-5-10.4-11.3-10.5l-29.9-.2v36.7s30.4,0,30.4,0c5.8,0,10.3-3.9,10.8-10.3Z" fill="#cfcece"/>
  <path d="M474.6,534.4l-38.5.2c-8.7,0-15.4-5.9-16.8-14.5-1.6-9.6-1.5-19.6-.1-29.3,1.2-9.1,8.5-15.7,17.8-15.7h35.5c9.9-.1,17.1,7.5,18.2,17.3s1,17.7,0,26.4-7,15.6-16.2,15.7ZM469.2,523.3c5.1,0,8.2-4.1,8.7-8.4v-18.7c0-4.8-3.5-9-8.6-9h-28.4c-5.4-.1-9,4.2-9.1,9.3v17.3c0,5,3.4,9.6,8.8,9.6h28.5Z" fill="#cfcece"/>
  <path d="M76.4,534.7l-49,.2c-.7-4.1-.7-7.5.4-11.3h44.1c4.1,0,6.1-2.9,5.8-6.9s-.1-3.7-1.2-5-2.5-1.7-4.3-1.7l-31.8-.4c-6.9,0-12.7-4.7-12.8-11.4l-.2-10.9c-.1-6.6,5.7-12.2,12.8-12.3l47.2-.4c1.5,4.1,1.4,8.1.2,12.1l-43.2.4c-3.2,0-3.9,3.7-4,5.9s.6,6.2,4.2,6.3l33.1.6c8.6.2,13.6,6.4,13.3,14.8s.4,10.3-2.6,14.7c-2.3,3.5-7.1,5.3-12,5.3Z" fill="#cfcece"/>
  <path d="M167.2,534.8h-11.8c-3,.2-4.9-1.3-6.5-3.4l-34-44.5-.6,47.7c-4.2.5-8.1.7-12.5,0v-54.3c0-3.2,1.9-5.6,5.1-5.5h13.1c3.8,1.7,5.4,5.4,7.8,8.5l30.5,39.8.7-48c4.5-.5,8.3-.7,12.5.3v54.6c0,2.5-1.7,4.9-4.4,4.9Z" fill="#cfcece"/>
  <path d="M297.5,371l29.3-42.5,9.3-13.4-5.7-25.8c2.6-2.5,6.2.4,8.7.8l18.3-8,12.3,18.9-10.8,38.4-31.2,16.5c-9.9,4.9-18.1,11.3-30.3,15.1Z" fill="#804117"/>
  <path d="M432.5,269.6c24.7-25.5,31.6-62.7,18.3-95.8-4.3-10.7-9.9-19.5-18-27.6l10.8-10.5c38.8,40.2,38.7,104.4,0,144.5-3.1-3.8-5.9-6.7-11.1-10.7Z" fill="#e1882e"/>
  <path d="M299,277.4l7.4,9,14.8,16.8c2.5,2.9,4.6,6,7.9,7.6.2,1.1,1,2.3-.2,3.3l-49.8-17c-10,3.1-19.1,6.3-28.7,6.8-4.3-8.4-8.2-16.8-11.1-25.6l37.4,17.6-12-51.1-4.2-14.2-1.6-2.7c5.8,3.3,13.5,6.2,18.9,10.9l16.9,33.1c1.4,2.7,3,3.8,4.5,5.6Z" fill="#bc631a"/>
  <path d="M316.1,515.8l-35.9.3-.4,18.2c-4.1.9-8.4.9-12.9.2v-59.8c0,0,48.7,0,48.7,0,7.7,0,13.8,4.8,15.3,12,1.3,5.9,1.3,11.9,0,17.7s-7.1,11.2-14.7,11.3ZM318.6,494.9c.2-5.1-2.5-8.1-7.2-8.1h-31.6c0,.1,0,18.4,0,18.4h30.4c2.9,0,5.5-.9,6.8-2.7s1.4-4.5,1.5-7.6Z" fill="#cfcece"/>
  <path d="M359.4,145.3l17.5,6.8c2.1.8,4.3,1.2,6.2,2.7l-11.8,37.7,7,17.4-13.1,37.5c-.6,1.7-2.7,3.2-4.2,4l-16.9,9.5-25.3-9-9.3-20.5,12.2-38.6,19.5-11.3,11.8-37.8,6.4,1.6ZM365.6,187.9l9-29-17.1-6.4-8.7,29.9,16.8,5.5ZM317,230.6c1.3,4.7,3.3,11.1,6.7,15.1l16.3,7c2.2.9,4.6.6,6.4-.5l12.5-7.3,11.9-34c.9-2.5-1.3-5-2.1-6.8l-3.9-9-20.7-7.4-16.6,10.1-10.6,32.8Z" fill="#e1882e"/>
  <path d="M330,180.9c0-1.8-.2-3.4-1.8-4.5s-3.4-1.1-5.4.1l-11.7,7.5c-1.3.9-1.9,1.9-2.5,3.9l-14.4,46.4,14.1,27.6,30.3,10.4,30.4-16.3,16.8-48.1-7-18.4c-1.1-2.8,1.7-6.4,2.6-9.2l11.9,27.5-18.3,52.5-36.1,19.3-35.3-12.2-17-33.4,16.9-54.4,12.5-8,15.8-9.9c2.3-1.4,6.7-2.8,8.1.2-2.6,13.2-1.7,13.8-10,18.6Z" fill="#e1882e"/>
  <path d="M238.3,522.3l-39.1-.2-6.9,12.6c-4.9.1-9.1.8-13.9-.6l30.5-56.7c2-3.6,6.4-2.7,9.6-3,4.7-.3,8,.4,10.3,4.6l30.3,55.1c-5,1.2-9.7.8-14.4.3l-6.5-12.2ZM232.7,512.2l-14.7-25.9-14,26.2,28.7-.3Z" fill="#cfcece"/>
  <path d="M243.9,219.2c.5,1.6-.1,3-1.1,4.8l-12.6,23-2.5,5.9c-.5,1.1-.6,2.6,0,4l9.2,20.6-27.3-5.8-19.7-15.7c-.8-.6-1-1.7-1.1-1.9l8.4-21.6c1-2.7,1.8-5,4.2-6.2l18.9-1.6,19-7.3c1.8-.7,3.3,1,4.5,1.7Z" fill="#bc631a"/>
  <path d="M239.1,278.2l-2.2-.7-9.2-20.6c-.7-1.4-.5-2.9,0-4l15.7-13.1,15.3-12.1,1.6,2.7,4.2,14.2,12,51.1-37.4-17.6Z" fill="#e1882e"/>
  <path d="M392.6,308.6l-12.6-17.3-11-15.6,13.7-8.6,8-22.7,12.6,31.9,22.3,55.4c-3.9,0-5.2-3.2-7.6-4.9l-25.3-18.1Z" fill="#804117"/>
  <path d="M381.3,139.3l-18.6-7.3-8-3.2.5-26.7-10.7-29.1-9.7-8.5c-2.2-4-3-7.8-4-13l32.8,14.7,16.9,15.6,9.6,29.3-2.5,29.6c-2.1,0-4.3-.7-6.3-1.5ZM362.2,122c0,.7,0,2.3.8,2.6l18.6,7,.9-19.9-8.7-27.9-12-9.9c-3-2.5-7-4.2-10.9-5.8l11.9,33.1-.7,20.8Z" fill="#e1882e"/>
  <path d="M408.1,243.9c20.8-21.4,19.7-50.8.2-73l10.3-10.4c25.5,24.9,26.4,64.9,3.1,91.4-.7.8-1.2,2.4-1.9,2.7s-2.2-.3-3-1.2l-8.6-9.6Z" fill="#e1882e"/>
  <path d="M260.4,130.3c-6.3,1.9-12.8,4-19.3,4.2s-1.7-5.3-2.1-7l-20.6-94.6c15.5,28.9,28.7,57.3,41.9,86.4,1.4,3,0,7,0,11Z" fill="#804117"/>
  <path d="M214.4,388.1c2.9.2,4.5-2.5,6.6-4.5l14.3-13.3,18.6-16-14.3,80.1-22.9-40c-1.1-2-2.2-3.9-2.3-6.4Z" fill="#bc631a"/>
  <path d="M201.5,226.4c-2.5,1.2-3.2,3.5-4.2,6.2l-8.4,21.6-17.2,2c-13.6,1.6-26.6,4.2-39.7,5.1.1-.6.6-1.6,1.3-2l14.4-9.2,48.6-31.1c.6,2.2.5,4.6,1.8,6.6s2.6.8,3.4.8Z" fill="#804117"/>
  <path d="M253.9,354.3l-18.6,16-14.3,13.3c-2.1,2-3.7,4.7-6.6,4.5l6.2-41.5-4.3-13.4c5-2.5,9.9-.4,14.1,2.6l22.8,16.1c.6.4.8,1.5.6,2.5Z" fill="#804117"/>
  <path d="M226.1,137.9l-16-29.4c-1-1.8-2-3.3-3.8-3.8l1-16.1,4-35.9c.3-2.9.3-5.9,2.7-8.3l14.3,74.3c1.3,6.5,2.7,15-2.1,19.1Z" fill="#bc631a"/>
  <path d="M213.4,330.1l-58,5c-6.9-.8-13.6-5.7-19.7-8.5s-11.7-1.9-13.5-12.9l33.5,10.6c8.6-3.2,17-2.7,26.1-1.1l24.3,4.3,7.3,2.6Z" fill="#804117"/>
  <path d="M89.8,270.8l19.7,2.2c1,0,10.1-4.8,11.6-6s.6-1.3,1.1-1.8c4.1,4.8,4,12.8-1.2,17.4-4.7,9.8-15.4-8.6-19.2-3.4s2.9,11.7,12,11.9c-.4,3.5-2.5,4.2-4.5,4.9s-4-.2-6-1.3c-8.6-4.7-10.9-13.6-13.6-23.9Z" fill="#804117"/>
  <path d="M226.1,137.9l-16.5,14c-2-8.9-2.1-17.4-2.5-26.4l-.8-20.7c1.8.4,2.8,2,3.8,3.8l16,29.4Z" fill="#804117"/>
  <path d="M311.1,184.1l5.6,4.5-11.3,37.7c-2.5,8.3-6.8,4.2-11.2,8.1l14.4-46.4c.6-2,1.2-3,2.5-3.9Z" fill="#804117"/>
  <path d="M329,310.8c-3.3-1.6-5.4-4.7-7.9-7.6l-14.8-16.8-7.4-9c3.2-.6,6,1.1,9,2.2l15.8,6,5.2,25.3Z" fill="#804117"/>
  <path d="M258.7,227.8l-15.3,12.1-15.7,13.1,2.5-5.9,12.6-23c.9-1.7,1.6-3.1,1.1-4.8l14.9,8.5Z" fill="#804117"/>
  <path d="M81.2,580.4l-.5-14.3c-3.7,3.7-5.4,8.2-8.3,13.1l-8.7-12.2c-1.4,5.2-.7,9-.6,13.9l-2.9.2v-22.8c1,0,1.9-.2,2.4,0s.9,1.4,1.3,2l8,14,8.3-13.9c.3-.5.4-1.9,1.1-2.1s1.4-.1,2.7,0v22.6c-.1.6-2.6.7-2.6-.3Z" fill="#cfcece"/>
  <path d="M272.9,580.8l-.6-14.7c-4.9,4.8-7.9,15-9.9,11.9l-7.6-11.8-.6,14.5c-.7.4-2.3.4-2.7,0v-22.5c1.1,0,2.1-.2,2.6,0s.8,1.6,1.1,2.1l8.3,13.9,8.3-13.9c.3-.4.4-1.9,1-2.2s1.5,0,2.6,0v21.8c.1.7-1.1,1.7-2.5.8Z" fill="#cfcece"/>
  <polygon points="381.3 139.3 376.8 152.1 359.4 145.3 362.7 132.1 381.3 139.3" fill="#804117"/>
  <path d="M533.8,580.4l-.6-14.3-8.9,13.1-8.6-12.9c-1.3,4.6-.4,9.4-.6,14.5-.9.3-1.8.3-2.9,0v-22.6s2.8.2,2.8.2c.6,0,.7,1.7,1,2.2l8.2,13.9,8.5-14c.3-.5.4-1.9,1.1-2.1s1.5,0,2.5,0v22.5c0,.6-2.5.7-2.5-.4Z" fill="#cfcece"/>
  <path d="M354.1,580.1c-5,1.7-10.2.7-14.5.8v-22.8c0,0,11.3,0,11.3,0,5.2,0,9.1,5,9.8,9.4s-1,10.6-6.6,12.5ZM354,577c3.1-1.6,4.1-5.1,4-7.7s-1.4-5.9-4.3-7.2-7-1.5-11-.8v16.7c4,.7,7.8.8,11.4-1Z" fill="#cfcece"/>
  <path d="M122.2,265.2c-.5.5-.6,1.4-1.1,1.8-1.5,1.2-10.6,6.1-11.6,6l-19.7-2.2c4.3-4.3,10.4-7.6,16.3-10.7l16.1,5.1Z" fill="#e1882e"/>
  <path d="M219.5,317.7h-33.8s31.9-9.9,31.9-9.9c3.3-1,6.4.4,8.9,2.6l-7,7.3Z" fill="#804117"/>
  <path d="M230.9,558.4c7-2.3,13.1,1.4,15.2,7.5s-.9,13.2-7.3,14.9-12.6-.7-14.8-6.5.1-13.5,7-15.8ZM230.7,561.9c-5.1,2.4-5.4,8.7-3.7,12.2,2.4,4.7,7.8,5.1,10.9,3.9,5.7-2.1,6.5-8,4.9-11.9-1.8-4.7-7.3-6.5-12.2-4.2Z" fill="#cfcece"/>
  <path d="M381.9,558.4c6.8-2.3,13,1.8,15,7.6,2.1,6.1-1,13.1-7.4,14.7-6,1.6-12.6-.6-14.7-6.5s.2-13.5,7.1-15.9ZM381.6,561.9c-5.2,2.3-5.5,8.6-3.7,12.2s7.7,5,10.8,3.9c5.8-2,6.6-7.9,5-11.9s-7.2-6.5-12.2-4.3Z" fill="#cfcece"/>
  <path d="M505.5,571.2c-3.4-.2-6.3-.7-10,0s-2.5,5.5-.6,6.5c3.5,1.7,8.1.4,11.7.7.5.2.7,1.9.2,2.5l-15.7.2v-23c-.1,0,15.4,0,15.4,0v3s-11.1.3-11.1.3c-2.4,0-2.3,6.2,0,6.8,3.5.9,6.6.2,9.9,0-.2,1.2-.2,1.8,0,3Z" fill="#cfcece"/>
  <path d="M203.5,558.6c6.8-2.6,13.3,1.3,15.4,7,2.2,6.2-.6,13.1-6.9,15s-12.7-.4-15-6.1,0-13.4,6.5-16ZM203.4,562.1c-5.1,2.8-5.5,8.9-2.8,12.8s7.6,4.6,11.3,2.7,5.7-8,3.8-11.9c-2.2-4.5-7.6-6.2-12.3-3.6Z" fill="#cfcece"/>
  <path d="M255.2,91.3c-2.3-2.5-2.6-4.8-4-7.9l23.2-20.2c-.4,3.4-.5,7.8-2.3,10.6l-16.9,17.4Z" fill="#e1882e"/>
  <path d="M329.9,558.5c.6-.5,2.1-.6,3.3-.4l-.2,12.4c0,5.9-2.7,10.2-8.3,10.8-5,.5-10.4-2.1-10.5-8l-.3-15.2h3.1c0,0,0,13.7,0,13.7,0,4,2.6,6.6,6,6.9s6.9-2.5,6.9-6.9v-13.2Z" fill="#cfcece"/>
  <path d="M192.4,580.9c-5,1.3-5-6.1-9.2-6.9-1.7-.4-5.2-1-5.5,1.9s1.4,5.2-2.7,5.6l-.3-23.5,10.9.2c3.7,0,6,3.6,6.7,6.6s-1,6.4-4.4,8.7l4.5,7.3ZM185.7,571c2.7-.8,3.6-3,3.6-4.9s-1.1-4-3.4-4.6-5.5-.8-8.2-.2v10.1c2.8.2,5.2.4,8-.4Z" fill="#cfcece"/>
  <path d="M462.3,580.9c-6.6,1.6-13.9-1.2-11.8-4.1s.7-.4,2.1-.1c2.6,2.6,9.8,3.4,11.2-.9s-11.1-3.4-13.1-9.3,0-6,2.9-7.6,8.8-1.5,12.1.6.2,2.4-.3,2.6c-1,.4-12-4.3-11.9,2.4,0,5.3,12.9,2.7,13.5,9.8.3,3.1-1.4,5.7-4.8,6.5Z" fill="#cfcece"/>
  <path d="M306.9,578.5c-1.5-5.1-13-3.6-14-1.7s-1.5,5.2-5.1,4l9.2-20.7c.7-1.7,1-2.2,2.6-2.2s1.8.9,2.5,2.5l9.1,20.6c-.5.4-2.1.2-2.8.1s-1.3-1.9-1.5-2.7ZM304.2,572.7l-4.6-10.5c-2.5,3.7-3.4,6.8-4.7,10.6,3.6.5,6.1.5,9.4,0Z" fill="#cfcece"/>
  <path d="M106.5,558.6c0-.7,2.3-.7,2.8-.2l-.5,16.9c-.1,4.5-5,6.1-8.9,6.1s-8.6-1.8-8.8-6.1l-.6-17.1h3.1c0,0,0,14.7,0,14.7,0,4,3.6,6.1,7.2,5.8s5.6-3,5.6-7v-13Z" fill="#cfcece"/>
  <path d="M422,580.8c-4.6,1.2-8.9,0-12.4-1.7.5-1.6.3-1.8.5-2,.8-1.1,11.4,5,13.4-1.3s-11.2-3.7-13-8.9,0-6.6,3-8,7.8-1.2,11.3.3.6,3.3-.2,3.1c-6-1.5-11.3-2.4-11.6,1.9,0,1.4.8,2.9,2.6,3.4l6.2,1.8c2.8.8,4.5,2.6,4.7,5s-1.1,5.6-4.5,6.4Z" fill="#cfcece"/>
  <path d="M140.7,581.1l-3,.2v-19.8c-3-.8-4.9-.5-7.4-.4v-3.1s18.3,0,18.3,0v3.2c-3-.3-4.9-.5-7.7.2v19.7Z" fill="#cfcece"/>
  <path d="M333.5,150.3c-4.5,3-9,6.2-14.3,7.6l7.6-25.3c.9.6,1.3,1.7,1.8,3.1l4.9,14.6Z" fill="#bc631a"/>
  <path d="M448.7,558.2l-8.6,14.9c-1.2,2.2-.4,5.2-.4,7.6-1.1.4-1.8.4-3,0,0-2.3.8-5.3-.4-7.4l-8.1-14.6c-.2-.8,2.8-1.1,3.4-.1l6.9,11.4,7.3-11.7c.3-.5,2.5-.5,3-.2Z" fill="#cfcece"/>
  <path d="M479.6,578.4c0,1.4-.2,2.1-.5,2.4-.7.7-2.5.4-2.5-.8v-18.5c-2.8-.8-5.1-.5-7.7-.4v-3.1s18.3,0,18.3,0v3c-2.5,0-4.8-.4-7.6.4v16.9Z" fill="#cfcece"/>
  <path d="M131,578.6c.6,0,.4,2.3-.2,2.3h-14.7c0,0,0-22.7,0-22.7,1.4-.2,2.6-.2,3.1.3v19.7c0,0,11.9.4,11.9.4Z" fill="#cfcece"/>
  <path d="M330,180.9l-13.3,7.7-5.6-4.5,11.7-7.5c2-1.3,3.9-1.1,5.4-.1s1.9,2.7,1.8,4.5Z" fill="#bc631a"/>
  <path d="M231.5,212.9c-3.9,2.2-7,4.5-11,4.8s-4-3.1-4.5-4.7.6-4.7,2-7.3l13.5,7.2Z" fill="#bc631a"/>
  <polygon points="155 581.1 151.9 581.3 152.1 558.1 155 558.1 155 581.1" fill="#cfcece"/>
  <polygon points="368.8 581.1 365.9 581.4 365.8 558.1 368.9 558.1 368.8 581.1" fill="#cfcece"/>
  <path d="M120.9,312c-1.1,2.9-2.4,4.5-5.3,6.1l-11.3-17.3,16.5,11.2Z" fill="#804117"/>
  <path d="M169.1,573.2h-8.2c-.5-2.2.6-2.5,1.3-2.5h3.5s3.4.1,3.4.1c.6,0,.6,1.9,0,2.4Z" fill="#cfcece"/>
  <polygon points="425.7 338.9 356.3 391 390.2 314.5 425.7 338.9" fill="#804117"/>
  <path d="M187.4,191.7l-3.7,13.3c-.5,2-3,6.5-6,4.9-2.3-2.1-.2-8,0-11l.3-8.4,9.4,1.2Z" fill="#e1882e"/>
  <path d="M368.7,204.2c.8,1.8,2.9,4.3,2.1,6.8l-11.9,34-12.5,7.3c-1.8,1-4.2,1.4-6.4.5l-16.3-7c-3.4-4-5.4-10.4-6.7-15.1l49-26.1c1-.5,1.9-.6,2.8-.3Z" fill="#804117"/>
  <path d="M368.7,204.2c-.9-.3-1.8-.2-2.8.3l-49,26.1,10.6-32.8,16.6-10.1,20.7,7.4,3.9,9Z" fill="#bc631a"/>
  <polygon points="365.6 187.9 348.8 182.3 357.5 152.5 374.6 158.9 365.6 187.9" fill="#bc631a"/>
  <path d="M382.6,111.7c-6.5,3.7-13.1,8-20.3,10.3l.7-20.8-11.9-33.1c3.9,1.6,7.8,3.3,10.9,5.8l12,9.9,8.7,27.9Z" fill="#bc631a"/>
  <path d="M362.2,122c7.2-2.3,13.9-6.6,20.3-10.3l-.9,19.9-18.6-7c-.9-.3-.9-1.9-.8-2.6Z" fill="#804117"/>
</svg>