<?xml version="1.0" encoding="UTF-8"?>
<svg id="Ebene_1" xmlns="http://www.w3.org/2000/svg" version="1.1" viewBox="0 0 595.3 595.3">
  <!-- Generator: Adobe Illustrator 30.3.0, SVG Export Plug-In . SVG Version: 2.1.3 Build 182)  -->
  <path d="M238.9,281c0-1.8-.8-3.6-2-5.6l-23.3-41.1-28.7-5.5c-3.4-.7-6.1.8-8,3.5-7,9.3-14.2,17.9-22.2,26.4s-3.6,5.7-6.9,6.8l4.8-17.1,7.3-25.2,44.6-35.6,47.2-10.4,35,65.7-5.1,16.6-33.6,19.2c-2.7,1.5-6.6,3.8-9.3,2.4Z" fill="#804117"/>
  <path d="M331,524.1l-96.2,39.4,46.9-67.1,73.8-36.9c3.3-1.7,5.4-4.6,10.1-4.8l-1.1,36.2-.9,18.4-32.6,14.7Z" fill="#804117"/>
  <path d="M514.5,394l-13.9-13.5c59.7-62.6,59.6-159.2.4-222.3l13.3-13.4c16.1,17.5,30.1,36.5,38.5,59.2,24.5,65.9,11.4,139.3-38.4,190.1Z" fill="#e1882e"/>
  <path d="M294.4,210.9l-20.1-77.1c0-5.5,1.8-12.2,3.2-17.4l12.3-46.1c2.1-8.1,7-14.5,11.3-22.3,1.7,3.5,5,6.6,5.6,10.6l17.8,110.5-13.2,41.2c-1.1,3.3-7.4,7-10.5,7.6-3.2,0-5.8-4.5-6.4-7.1Z" fill="#bc631a"/>
  <path d="M341.1,195l-6.3-18.8c-.6-1.9-1.2-3.3-2.4-4.1.6-2.1,1.3-4.2.7-7.2l-6.3-37.5-11.4-71.4-13.3-23c-6.2,5.4-7.7,12.3-11.6,18.6-4.9,7.8-8.2,15.4-9.5,24.8l-5.3,37.9c-.2,1.4.4,2.4,1.6,2.2-1.4,5.2-3.1,11.9-3.2,17.4l20.1,77.1-34.8-40.1,1.9-14.5,4.4-28.4c3.5-22.8,5.6-45.6,12.6-67.6l18.6-39.1c4.2-8.9,11.4,8,23.4,17.1l16,56.1,23.3,80.5-7.5,24c-3.4-.7-8.9-1.4-11.1-4Z" fill="#804117"/>
  <path d="M335.1,406.2c-.4.3-1,1.2-.3,2l-32.4,16.6-50.2,24.8c-2.7,1.3-5.8,2.7-6.3,5.4,0-7.9-10.5-9.5-23.7-20.3s-9.4-5.1-12.9-10.8l21-23.8c2.1-2.4,4.1-4.3,3.5-7,12.3-.7,24.1-4.8,37-8.8l64.3,22Z" fill="#804117"/>
  <path d="M245.9,455c.5-2.7,3.6-4.1,6.3-5.4l50.2-24.8,32.4-16.6-14.2,21.6-58.8,81.7-33.6,46.6,17.8-103.1Z" fill="#bc631a"/>
  <path d="M160,223.2l-7.3,25.2-12.1-1.5-.4,10.9c-.2,3.8-2.8,11.5.1,14.2,3.8,2,7-3.8,7.7-6.4,3.3-1.1,4.6-4.3,6.9-6.8,8-8.5,15.2-17.1,22.2-26.4,1.9-2.7,4.5-4.2,8-3.5l28.7,5.5,23.3,41.1c1.1,2,2,3.8,2,5.6l-45.9-25,3.2-6.8-14.5-7.6-10.8,28.2c-1.7,4.4-3.1,11.4-6.7,13.7l-62.8,40.1-18.6,11.8c-.9.6-1.5,1.8-1.7,2.6-3,.2-5.4,1.2-9.2-.2l-16.2-6,10.9-7.6,68.6-42.1,4-37.7,20.8-21.4Z" fill="#bc631a"/>
  <path d="M294.7,479.7l37.8-54.8,12-17.3-7.3-33.3c3.3-3.2,8,.5,11.2,1l23.6-10.4,15.9,24.4-14,49.5-40.2,21.3c-12.7,6.3-23.4,14.6-39.1,19.5Z" fill="#804117"/>
  <path d="M468.8,348.9c31.8-33,40.7-80.9,23.6-123.5-5.5-13.8-12.7-25.2-23.2-35.6l13.9-13.6c50.1,51.9,49.9,134.7,0,186.4-4.1-4.8-7.5-8.6-14.3-13.7Z" fill="#e1882e"/>
  <path d="M296.6,358.9l9.5,11.6,19.1,21.7c3.2,3.7,5.9,7.7,10.2,9.8.3,1.4,1.3,3-.3,4.2l-64.3-22c-12.9,4-24.7,8.1-37,8.8-5.6-10.9-10.6-21.6-14.4-33l48.3,22.7-15.5-66-5.4-18.3-2.1-3.5c7.4,4.3,17.4,8,24.3,14.1l21.7,42.6c1.8,3.4,3.9,4.9,5.8,7.3Z" fill="#bc631a"/>
  <path d="M374.5,188.6l22.5,8.8c2.7,1.1,5.5,1.5,8,3.5l-15.2,48.6,9,22.4-16.9,48.4c-.8,2.2-3.5,4.1-5.4,5.2l-21.8,12.3-32.6-11.6-12-26.4,15.8-49.8,25.2-14.5,15.2-48.8,8.3,2ZM382.6,243.4l11.6-37.4-22.1-8.3-11.3,38.5,21.7,7.1ZM319.8,298.6c1.7,6.1,4.3,14.3,8.7,19.5l21.1,9c2.8,1.2,6,.8,8.3-.6l16.1-9.5,15.4-43.8c1.1-3.2-1.7-6.4-2.7-8.7l-5-11.6-26.7-9.6-21.4,13-13.7,42.3Z" fill="#e1882e"/>
  <path d="M336.6,234.4c.1-2.3-.2-4.4-2.3-5.8s-4.4-1.5-6.9.2l-15.1,9.7c-1.7,1.1-2.4,2.4-3.2,5l-18.6,59.9,18.2,35.6,39.1,13.4,39.2-21.1,21.6-62-9-23.7c-1.4-3.7,2.2-8.3,3.4-11.8l15.3,35.5-23.6,67.7-46.6,25-45.6-15.7-21.9-43.1,21.8-70.2,16.1-10.3,20.3-12.7c2.9-1.8,8.7-3.6,10.5.3-3.3,17.1-2.2,17.8-12.8,24Z" fill="#e1882e"/>
  <path d="M225.5,283.9c.6,2.1-.2,3.9-1.4,6.1l-16.3,29.7-3.2,7.6c-.6,1.5-.8,3.3,0,5.2l11.9,26.5-35.2-7.4-25.4-20.2c-1-.8-1.2-2.3-1.4-2.5l10.8-27.8c1.3-3.4,2.3-6.4,5.5-8l24.4-2.1,24.5-9.4c2.4-.9,4.3,1.3,5.8,2.2Z" fill="#bc631a"/>
  <path d="M219.4,360l-2.8-.9-11.9-26.5c-.9-1.9-.7-3.7,0-5.2l20.2-16.8,19.8-15.6,2.1,3.5,5.4,18.3,15.5,66-48.3-22.7Z" fill="#e1882e"/>
  <path d="M417.4,399.2l-16.3-22.3-14.2-20.2,17.6-11,10.3-29.3,16.2,41.1,28.8,71.5c-5,0-6.7-4.1-9.8-6.3l-32.7-23.4Z" fill="#804117"/>
  <path d="M402.7,180.9l-24-9.4-10.3-4.1.7-34.4-13.8-37.6-12.5-11c-2.9-5.2-3.9-10.1-5.2-16.8l42.3,19,21.8,20.1,12.4,37.8-3.3,38.2c-2.7,0-5.5-.9-8.1-1.9ZM378.2,158.6c0,.9,0,3,1.1,3.4l24,9,1.1-25.7-11.2-36-15.4-12.7c-3.9-3.2-9-5.5-14-7.5l15.3,42.7-.9,26.8Z" fill="#e1882e"/>
  <path d="M437.3,315.8c26.9-27.7,25.4-65.5.3-94.2l13.3-13.4c32.9,32.2,34.1,83.7,3.9,118-1,1.1-1.5,3.1-2.4,3.5s-2.9-.4-3.9-1.5l-11.2-12.4Z" fill="#e1882e"/>
  <path d="M246.8,169.2c-8.2,2.4-16.6,5.1-24.9,5.4s-2.2-6.8-2.7-9l-26.6-122c20,37.3,37.1,74,54.1,111.5,1.8,3.9,0,9.1.1,14.2Z" fill="#804117"/>
  <path d="M187.5,501.7c3.7.2,5.8-3.3,8.5-5.8l18.4-17.1,24-20.6-18.4,103.3-29.6-51.6c-1.5-2.6-2.8-5-2.9-8.2Z" fill="#bc631a"/>
  <path d="M170.9,293.1c-3.2,1.5-4.1,4.5-5.5,8l-10.8,27.8-22.2,2.6c-17.5,2-34.3,5.5-51.3,6.6.2-.8.8-2,1.7-2.6l18.6-11.8,62.8-40.1c.8,2.9.6,5.9,2.3,8.6s3.4,1.1,4.4,1Z" fill="#804117"/>
  <path d="M238.4,458.2l-24,20.6-18.4,17.1c-2.7,2.5-4.8,6-8.5,5.8l8.1-53.5-5.5-17.3c6.5-3.2,12.7-.5,18.1,3.4l29.4,20.8c.8.6,1,1.9.8,3.2Z" fill="#804117"/>
  <path d="M202.6,179l-20.7-37.9c-1.3-2.3-2.6-4.3-4.9-4.9l1.3-20.7,5.1-46.3c.4-3.7.4-7.6,3.5-10.8l18.5,95.9c1.6,8.4,3.4,19.3-2.8,24.6Z" fill="#bc631a"/>
  <path d="M186.2,426.9l-74.8,6.4c-8.9-1-17.5-7.3-25.4-10.9-10.2-4.6-15.1-2.4-17.5-16.6l43.2,13.6c11.1-4.2,22-3.4,33.7-1.4l31.3,5.5,9.4,3.3Z" fill="#804117"/>
  <path d="M26.8,350.4l25.4,2.9c1.3,0,13-6.2,15-7.8s.8-1.6,1.4-2.3c5.3,6.2,5.1,16.5-1.6,22.5-6.1,12.7-19.9-11-24.7-4.4-2.3,3.1,3.7,15,15.5,15.4-.6,4.5-3.2,5.4-5.8,6.3s-5.1-.3-7.7-1.7c-11.1-6-14.1-17.5-17.5-30.8Z" fill="#804117"/>
  <path d="M202.6,179l-21.3,18.1c-2.5-11.5-2.8-22.5-3.2-34.1l-1-26.7c2.3.6,3.6,2.5,4.9,4.9l20.7,37.9Z" fill="#804117"/>
  <path d="M312.2,238.5l7.2,5.9-14.6,48.7c-3.2,10.8-8.7,5.4-14.4,10.4l18.6-59.9c.8-2.6,1.5-3.9,3.2-5Z" fill="#804117"/>
  <path d="M335.4,402c-4.3-2.1-6.9-6.1-10.2-9.8l-19.1-21.7-9.5-11.6c4.2-.7,7.7,1.4,11.6,2.8l20.4,7.7,6.7,32.6Z" fill="#804117"/>
  <path d="M244.7,294.9l-19.8,15.6-20.2,16.8,3.2-7.6,16.3-29.7c1.2-2.2,2-4,1.4-6.1l19.2,11Z" fill="#804117"/>
  <polygon points="402.7 180.9 397 197.4 374.5 188.6 378.8 171.5 402.7 180.9" fill="#804117"/>
  <path d="M68.6,343.2c-.7.7-.8,1.8-1.4,2.3-2,1.6-13.7,7.9-15,7.8l-25.4-2.9c5.5-5.5,13.5-9.8,21.1-13.8l20.7,6.6Z" fill="#e1882e"/>
  <path d="M194.1,411h-43.6s41.2-12.8,41.2-12.8c4.2-1.3,8.2.5,11.4,3.3l-9.1,9.5Z" fill="#804117"/>
  <path d="M240.2,118.9c-3-3.2-3.3-6.2-5.2-10.1l29.9-26c-.5,4.3-.7,10-2.9,13.7l-21.8,22.4Z" fill="#e1882e"/>
  <path d="M341.1,195c-5.8,3.8-11.6,8-18.4,9.8l9.8-32.7c1.1.7,1.7,2.1,2.4,4.1l6.3,18.8Z" fill="#bc631a"/>
  <path d="M336.6,234.4l-17.1,10-7.2-5.9,15.1-9.7c2.5-1.6,5-1.4,6.9-.2s2.4,3.5,2.3,5.8Z" fill="#bc631a"/>
  <path d="M209.6,275.8c-5,2.9-9,5.8-14.2,6.2s-5.2-4-5.7-6.1.8-6,2.6-9.4l17.4,9.3Z" fill="#bc631a"/>
  <path d="M66.9,403.5c-1.4,3.7-3.1,5.8-6.8,7.8l-14.5-22.3,21.3,14.5Z" fill="#804117"/>
  <polygon points="460.1 438.3 370.5 505.5 414.2 406.8 460.1 438.3" fill="#804117"/>
  <path d="M152.7,248.4l-4.8,17.1c-.7,2.5-3.9,8.4-7.7,6.4-2.9-2.7-.3-10.3-.1-14.2l.4-10.9,12.1,1.5Z" fill="#e1882e"/>
  <path d="M386.6,264.5c1,2.3,3.8,5.6,2.7,8.7l-15.4,43.8-16.1,9.5c-2.3,1.3-5.5,1.8-8.3.6l-21.1-9c-4.4-5.2-7-13.5-8.7-19.5l63.2-33.6c1.3-.7,2.4-.8,3.6-.4Z" fill="#804117"/>
  <path d="M386.6,264.5c-1.2-.4-2.4-.3-3.6.4l-63.2,33.6,13.7-42.3,21.4-13,26.7,9.6,5,11.6Z" fill="#bc631a"/>
  <polygon points="382.6 243.4 360.8 236.3 372.1 197.8 394.2 206.1 382.6 243.4" fill="#bc631a"/>
  <path d="M404.4,145.2c-8.3,4.8-16.9,10.3-26.2,13.3l.9-26.8-15.3-42.7c5,2,10.1,4.2,14,7.5l15.4,12.7,11.2,36Z" fill="#bc631a"/>
  <path d="M378.2,158.6c9.3-3,17.9-8.5,26.2-13.3l-1.1,25.7-24-9c-1.1-.4-1.1-2.5-1.1-3.4Z" fill="#804117"/>
</svg>