<?xml version="1.0" encoding="UTF-8"?>
<svg id="Ebene_1" xmlns="http://www.w3.org/2000/svg" version="1.1" viewBox="0 0 1427 496.1">
  <!-- Generator: Adobe Illustrator 30.3.0, SVG Export Plug-In . SVG Version: 2.1.3 Build 182)  -->
  <g>
    <path d="M0,218.9L62.5,0l78.2,187.6" fill="#d97706"/>
    <path d="M425.2,218.9L362.7,0l-78.2,187.6" fill="#d97706"/>
    <circle cx="212.6" cy="297.5" r="187.6" fill="none" stroke="#d97706" stroke-width="22"/>
    <circle cx="212.6" cy="297.5" r="93.8" fill="none" stroke="#d97706" stroke-width="22"/>
    <circle cx="212.6" cy="297.5" r="21.9" fill="#d97706"/>
  </g>
  <g>
    <path d="M618.9,174.8c-.4,3.5-2,6-4.5,6h-.2l-35.9-1.2c-2.3,0-3.9-2.1-4.1-3.7-1.2-13.1-10.5-28.3-28.7-28.3s-16.2,5.3-16.2,11.5,3.5,11.3,12.3,14.8c23.4,9.2,71.2,16.4,71.2,48.9s-20.7,42.1-60.6,42.1-72.1-26.9-73.3-53.4v-.2c0-2.7,2.7-3.9,4.1-3.9l33.7-1.2h.2c2.5,0,3.9,2.1,4.3,3.3,2.3,8.2,10.3,19.1,25.5,19.1s11.1-4.1,11.1-9c0-9.4-30.8-16.4-38-19.1-19.9-7.2-41.1-19.1-41.1-48s31.4-52.8,64.3-52.8,76,27.5,76,67.9.2,4.7-.2,7Z"/>
    <path d="M743.9,259.5c-.2,1.2-1.2,1.9-2.5,1.9h-.2l-39.2-2.7c-1,0-1.6-.8-1.6-1.6v-.2c1-6.6,1.2-15.6,1.2-31,0-35.3-1.4-48.2-14.2-48.2s-14.4,6.4-14.2,22.6l.2,55.2c0,1.6-1.2,2.9-2.7,2.9l-36.5-1c-1.6,0-2.9-1.4-2.9-2.9l-2.7-108.8v-.2c0-1.6,1.2-2.7,2.7-2.7l38.8.6c1.6.2,2.7,1.4,2.9,3.1v6c6.6-3.3,14.8-5.5,25-5.5,28.9,0,47.4,13.3,47.4,69.4s-.6,37.4-1.4,42.9Z"/>
    <path d="M865.9,255.4c0,1.8-1.6,3.3-3.3,3.5l-32,1.6h-.2c-1.8,0-2.9-1.4-3.1-2.9l-.2-10.5c-6,5.9-13.8,9.6-24.6,9.6-29.2,0-48.6-21.6-48.6-56s23.2-53.8,49.1-53.8,17.2,2.9,24,7l-.2-5.1c0-1.8,1.4-3.1,3.1-3.3l36.7-.6c1.8,0,3.1,1.4,3.1,3.1l-3.9,107.4ZM827.1,195.3c-1.6-6.2-6.8-11.3-14.2-11.3s-15.8,7.6-15.8,18.5,7.2,17.4,15.6,17.4,12.7-5.5,14.4-15.4v-9.2Z"/>
    <path d="M951,260.8c-8.8,0-17.7-1.9-25.2-5.7l-.8,50.5c0,2.1-1.8,3.9-3.7,3.9l-33.5,1.2c-2,0-3.5-1.6-3.5-3.7l-1-163.6c0-2,1.8-3.7,3.7-3.9l37.6-1.6c2-.2,3.7,1.4,3.5,3.5v7.2c5.3-2.1,11.9-3.3,19.9-3.3,27.3,0,50.5,21.8,50.5,57.9s-22.6,57.5-47.6,57.5ZM940.8,185.6c-8.8,0-13.8,9.7-13.8,18.7,0,13.8,6.4,20.5,14,20.5s14.4-7.8,14.4-21.8-5.5-17.4-14.6-17.4Z"/>
    <path d="M1125.3,105.2l-5.3,150.1c0,1.8-1.6,3.3-3.3,3.5l-32,1.6h-.2c-1.8,0-2.9-1.4-3.1-2.9l-.2-10.5c-6,5.9-13.8,9.6-24.6,9.6-29.2,0-48.6-21.6-48.6-56s23.2-53.8,49.1-53.8,17.2,2.9,24,7l1.2-47.8c.2-1.8,1.6-3.3,3.3-3.3l36.5-.6h.2c1.6,0,2.9,1.4,2.9,2.9v.2ZM1081.2,194.3c-1.6-6.2-6.8-11.3-14.2-11.3s-15.8,7.8-15.8,18.5,7,17.5,15.6,17.5,12.7-5.5,14.4-15.4v-9.4Z"/>
    <path d="M1193.1,262c-29.4,0-57.7-20.5-57.7-58.3s20.9-60.6,54.6-60.6,53.8,20.5,53.8,60.6-21.3,58.3-50.7,58.3ZM1189.2,186.3c-9.8,0-14.8,8-14.8,18.3s7,16.8,15.4,16.8,14-7.2,14-17.9-6.6-17.2-14.6-17.2Z"/>
    <path d="M1363.8,268.4c-1.6,32.2-21.4,46.6-46.2,46.6s-24-4.9-28.3-8.8c-1-.8-1.2-1.8-1.2-2.7v-.2l.6-33c0-1.2.6-1.9,1.6-1.9s.6.2,1,.6c2,1.9,8.8,8.4,17.7,8.4s16.6-6.4,17.9-23.2l.4-3.7-.2-3.3c-5.8,5.7-14.8,9.4-25.3,9.4-29.2,0-48.6-21.6-48.6-56s23.2-53.8,49.1-53.8,16.6,2.7,23.2,6.4l-.2-5.7c0-1.9,1.4-3.3,3.3-3.3l37,1.4c2,.2,3.3,1.6,3.3,3.5l-5.3,119.3ZM1326.3,195.3c0-5.7-6.4-9.9-13.1-9.9s-14.6,7-14.6,17.2,6.6,16.2,14.4,16.2,13.5-4.9,13.5-14.4l-.2-9Z"/>
  </g>
  <g>
    <path d="M479.2,307.3c-.3-.2-.5-.5-.3-.9l2.2-4.6c.2-.4.5-.5.9-.3,2.2,1.4,4.9,2.9,8.7,2.9s2.9-.4,3.7-.9c1-.8,1.4-1.8,1.4-2.8,0-1.9-1.7-3-4-3.8-2.6-.9-5.8-1.6-8.5-3.3-2.3-1.5-4-3.6-4-7.4s1.1-5.1,3.4-6.8c2-1.5,5.1-2.4,8.9-2.4s8.3,1.3,10.3,2.5c.4.2.5.6.3.9l-2.2,4.6c-.2.3-.5.5-.9.2-2.2-1.2-4.9-2.3-7.9-2.3s-2.8.3-3.5.8c-.8.6-1.2,1.3-1.2,2.2,0,1.8,1.7,2.7,4.1,3.5,2.8.9,6.3,1.5,9,3.4,2.1,1.5,3.7,3.7,3.7,7.3s-1.3,5.7-3.6,7.4c-2.2,1.8-5.4,2.7-8.9,2.7-5.3,0-9.1-1.6-11.6-3Z"/>
    <path d="M518.3,287.7c6.5,0,11.8,4.3,11.8,11.3s-5.2,11.3-11.8,11.3-11.7-4.2-11.7-11.3,5.2-11.3,11.7-11.3ZM518.3,305c3.4,0,5.5-2.5,5.5-6s-2.1-6-5.5-6-5.5,2.5-5.5,6,2.1,6,5.5,6Z"/>
    <path d="M534.5,288.8c0-.4.3-.7.7-.7h4.8c.4,0,.7.3.7.7v11.2c0,1.2.2,2.1.6,2.9.6,1.2,1.8,2,3.8,2s3.2-.8,3.9-2c.4-.8.6-1.7.6-2.9v-11.2c0-.4.3-.7.7-.7h4.8c.4,0,.7.3.7.7v11.7c0,2.8-.7,4.8-1.9,6.4-1.8,2.3-5,3.4-8.9,3.4s-7-1.1-8.8-3.4c-1.2-1.6-1.9-3.6-1.9-6.4v-11.7Z"/>
    <path d="M568,290.3c1.8-1.9,4.2-2.6,6.5-2.6s4.7.6,6.4,2.1c1.5,1.4,2.5,3.6,2.5,6.8v12.5c0,.4-.3.7-.7.7h-4.9c-.4,0-.7-.3-.7-.7v-10.9c0-1.6-.2-3.1-1.1-4.1-.6-.7-1.5-1.1-2.8-1.1-3.7,0-5.1,3.5-5.1,6.6v9.5c0,.4-.3.7-.7.7h-4.8c-.4,0-.7-.3-.7-.7v-20.3c0-.4.3-.7.7-.7h4.6c.4,0,.7.3.7.7v1.5h.1Z"/>
    <path d="M600.6,309.8c-3.7,0-7-.9-9.3-2.8-2.1-1.8-3.4-4.4-3.4-7.9s.7-5.5,2.4-7.5c1.8-2.3,4.8-3.9,9.2-3.9s2.2,0,3.3.4v-9.8c0-.4.3-.7.7-.7h4.8c.4,0,.7.3.7.7v30.9c0,.4-.3.7-.7.7h-7.6ZM602.6,304.6v-11.2c-.9-.2-1.8-.3-2.9-.3-1.8,0-3.4.8-4.4,2.1-.8,1-1.1,2.3-1.1,3.8s.7,3.3,1.7,4.1c1.4,1.1,3.3,1.5,5.3,1.5h1.4Z"/>
    <path d="M618,310.3c-2.1,0-3.7-1.7-3.7-3.7s1.7-3.8,3.7-3.8,3.7,1.7,3.7,3.8-1.7,3.7-3.7,3.7Z"/>
    <path d="M645.4,277.5c.4,0,.7.3.7.7v30.9c0,.4-.3.7-.7.7h-5.4c-.4,0-.8-.3-.8-.7v-30.9c0-.4.3-.7.8-.7h5.4Z"/>
    <path d="M658.6,290.3c1.8-1.9,4.2-2.6,6.5-2.6s4.7.6,6.4,2.1c1.5,1.4,2.5,3.6,2.5,6.8v12.5c0,.4-.3.7-.7.7h-4.9c-.4,0-.7-.3-.7-.7v-10.9c0-1.6-.2-3.1-1.1-4.1-.6-.7-1.5-1.1-2.8-1.1-3.7,0-5.1,3.5-5.1,6.6v9.5c0,.4-.3.7-.7.7h-4.8c-.4,0-.7-.3-.7-.7v-20.3c0-.4.3-.7.7-.7h4.6c.4,0,.7.3.7.7v1.5h.1Z"/>
    <path d="M686,301.3c0,1,.1,1.8.5,2.5.4.8,1.1,1.1,2.2,1.1s1.9-.3,3.1-1.2c.4-.3.9-.3,1,0l1.7,3.5c.2.3,0,.7-.3.9-1.8,1.2-4.3,2-7.1,2s-4.5-.8-5.5-2.1c-1.3-1.6-1.7-3.8-1.7-6.1v-9.1h-2.4c-.4,0-.7-.3-.7-.8v-3.5c0-.4.3-.7.7-.7h2.4v-4.3c0-.4.3-.7.7-.7h4.8c.4,0,.7.3.7.7v4.3h6c.4,0,.7.3.7.7v3.5c0,.4-.3.8-.7.8h-6v8.3Z"/>
    <path d="M713.4,303.8c.5-.3.9-.2,1.1.2l1.7,3.1c.1.3,0,.7-.3.9-1.8,1.2-5,2.2-8.2,2.2s-6.6-1.1-8.6-3.2c-2-2-3.2-4.9-3.2-8.4s1.2-6,3.2-8c1.8-1.9,4.6-3,8-3s6.7,1.5,8.4,3.8c1.6,2.1,2,5.4,2,8.7,0,.4-.3.7-.7.7h-14.2c.2,1.2.7,2.1,1.4,2.9.9,1,2.5,1.6,4.2,1.6s3.7-.6,5.3-1.5ZM711.3,296.7c0-1.1-.4-2-1-2.8-.7-.8-1.8-1.3-3.2-1.3s-2.7.5-3.4,1.3c-.7.8-1,1.8-1.2,2.8h8.9Z"/>
    <path d="M735.1,314.7c.8-.9,1.2-2.1,1.2-3.7v-2.1c-1.5.9-3.1,1.2-5.3,1.2s-5.4-1-7.2-2.8c-2.1-2-3.2-5.1-3.2-8.5s1-6.1,3-8.3c1.7-1.8,4.1-3,7.4-3s4.2.9,5.4,1.8h.1v-.6c0-.4.3-.7.7-.7h4.6c.4,0,.7.3.7.7v21.5c0,3.7-1,6.6-3.2,8.5-1.9,1.6-4.6,2.3-7.9,2.3s-6.5-.9-8.5-2.4c-.3-.3-.5-.6-.3-.9l1.8-3.6c.2-.3.6-.5,1.1-.2,1.6,1,3.5,1.9,6,1.9s2.8-.4,3.6-1.1ZM736.4,303.7v-9c-.9-.6-2.4-1.7-4.4-1.7s-2.7.5-3.4,1.4c-1,1.2-1.5,2.8-1.5,4.6s.5,3.6,1.4,4.6c.8.9,1.8,1.4,3.3,1.4s3.3-.6,4.5-1.4Z"/>
    <path d="M755,299.1v10c0,.4-.3.7-.7.7h-4.8c-.4,0-.7-.3-.7-.7v-20.3c0-.4.3-.7.7-.7h4.6c.4,0,.7.3.7.7v1.3h.1c1.3-1.5,3.1-2.4,5.3-2.4s3.9.6,5.3,1.8c.3.3.4.7.2,1l-1.8,3.7c-.2.4-.7.4-1.1.2-1.2-.7-2.3-1.2-3.8-1.2-3.2,0-4.1,3-4.1,6Z"/>
    <path d="M770.3,294.2c-.5.3-.8.3-1-.2l-1.4-3c-.2-.4-.1-.7.3-.9,2.2-1.4,5.4-2.4,8.8-2.4s5,.4,6.9,2.5c1.2,1.3,1.9,3,1.9,5.8v13.2c0,.4-.3.7-.7.7h-4.2c-.4,0-.8-.3-.8-.7v-.4h-.2c-1.9,1.2-3.6,1.6-5.8,1.6s-3.7-.6-5-1.8c-1.3-1.1-2.1-2.8-2.1-4.9s1.7-4.5,3.9-5.5c2.6-1.1,6-1.5,8.6-1.7v-.5c0-1.1-.2-1.9-.7-2.5-.5-.7-1.5-.9-2.6-.9-2.2,0-4.3.8-5.9,1.7ZM779.5,304.7v-4.1c-2.8,0-6.5.5-6.5,2.8s1.5,2.2,3.2,2.2,2.2-.2,3.3-.9Z"/>
    <path d="M797.8,301.3c0,1,.1,1.8.5,2.5.4.8,1.1,1.1,2.2,1.1s1.9-.3,3.1-1.2c.4-.3.9-.3,1,0l1.7,3.5c.2.3,0,.7-.3.9-1.8,1.2-4.3,2-7.1,2s-4.5-.8-5.5-2.1c-1.3-1.6-1.7-3.8-1.7-6.1v-9.1h-2.4c-.4,0-.7-.3-.7-.8v-3.5c0-.4.3-.7.7-.7h2.4v-4.3c0-.4.3-.7.7-.7h4.8c.4,0,.7.3.7.7v4.3h6c.4,0,.7.3.7.7v3.5c0,.4-.3.8-.7.8h-6v8.3Z"/>
    <path d="M825.1,303.8c.5-.3.9-.2,1.1.2l1.7,3.1c.1.3,0,.7-.3.9-1.8,1.2-5,2.2-8.2,2.2s-6.6-1.1-8.6-3.2c-2-2-3.2-4.9-3.2-8.4s1.2-6,3.2-8c1.8-1.9,4.6-3,8-3s6.7,1.5,8.4,3.8c1.6,2.1,2,5.4,2,8.7,0,.4-.3.7-.7.7h-14.2c.2,1.2.7,2.1,1.4,2.9.9,1,2.5,1.6,4.2,1.6s3.7-.6,5.3-1.5ZM823,296.7c0-1.1-.4-2-1-2.8-.7-.8-1.8-1.3-3.2-1.3s-2.7.5-3.4,1.3c-.7.8-1,1.8-1.2,2.8h8.9Z"/>
    <path d="M845.2,309.8c-3.7,0-7-.9-9.3-2.8-2.1-1.8-3.4-4.4-3.4-7.9s.7-5.5,2.4-7.5c1.8-2.3,4.8-3.9,9.2-3.9s2.2,0,3.3.4v-9.8c0-.4.3-.7.7-.7h4.8c.4,0,.7.3.7.7v30.9c0,.4-.3.7-.7.7h-7.6ZM847.3,304.6v-11.2c-.9-.2-1.8-.3-2.9-.3-1.8,0-3.4.8-4.4,2.1-.8,1-1.1,2.3-1.1,3.8s.7,3.3,1.7,4.1c1.4,1.1,3.3,1.5,5.3,1.5h1.4Z"/>
    <path d="M862.6,310.3c-2.1,0-3.7-1.7-3.7-3.7s1.7-3.8,3.7-3.8,3.7,1.7,3.7,3.8-1.7,3.7-3.7,3.7Z"/>
  </g>
  <g>
    <path d="M966.2,277.5c.4,0,.8.3.8.7v4.6c0,.4-.3.7-.8.7h-16.8v7h14.3c.4,0,.7.3.7.7v4.6c0,.4-.3.8-.7.8h-14.3v7.2h16.8c.4,0,.8.3.8.7v4.6c0,.4-.3.7-.8.7h-22.9c-.4,0-.8-.3-.8-.7v-30.9c0-.4.3-.7.8-.7h22.9Z"/>
    <path d="M983.4,309.2c-.2.5-.5.7-1.1.7h-5.6c-.6,0-.9-.2-1.1-.7l-7.5-20.2c-.1-.4-.1-1,.6-1h5.1c.6,0,1,.2,1.2.8l4.8,15h0l4.7-15c.1-.6.6-.8,1.2-.8h5c.7,0,.8.6.6,1l-8,20.2Z"/>
    <path d="M1011,303.8c.5-.3.9-.2,1.1.2l1.7,3.1c.1.3,0,.7-.3.9-1.8,1.2-5,2.2-8.2,2.2s-6.6-1.1-8.6-3.2c-2-2-3.2-4.9-3.2-8.4s1.2-6,3.2-8c1.8-1.9,4.6-3,8-3s6.7,1.5,8.4,3.8c1.6,2.1,2,5.4,2,8.7,0,.4-.3.7-.7.7h-14.2c.2,1.2.7,2.1,1.4,2.9.9,1,2.5,1.6,4.2,1.6s3.7-.6,5.3-1.5ZM1008.9,296.7c0-1.1-.4-2-1-2.8-.7-.8-1.8-1.3-3.2-1.3s-2.7.5-3.4,1.3c-.7.8-1,1.8-1.2,2.8h8.9Z"/>
    <path d="M1025.9,299.1v10c0,.4-.3.7-.7.7h-4.8c-.4,0-.7-.3-.7-.7v-20.3c0-.4.3-.7.7-.7h4.6c.4,0,.7.3.7.7v1.3h.1c1.3-1.5,3.1-2.4,5.3-2.4s3.9.6,5.3,1.8c.3.3.4.7.2,1l-1.8,3.7c-.2.4-.7.4-1.1.2-1.2-.7-2.3-1.2-3.8-1.2-3.2,0-4.1,3-4.1,6Z"/>
    <path d="M1055,311c-1.1,3-2.4,5.3-4.4,7-2.4,2.2-5.6,3.2-9.6,3-.3,0-.6-.2-.6-.6v-4.8c0-.4.2-.6.6-.6s.8,0,1.5,0c1.3,0,2.5-.3,3.6-1.1.8-.7,1.5-1.5,2.2-2.7l-9.9-22.2c-.2-.4-.1-1,.6-1h5.8c.6,0,1,.2,1.2.8l5.5,14.7,4.6-14.7c.2-.6.5-.8,1.2-.8h5.4c.7,0,.7.6.6,1l-8.3,21.9Z"/>
    <path d="M1099.1,300.4c0,2.8-.5,4.8-1.5,6.4-1.5,2.4-4.1,3.5-7.6,3.5s-4.1-.5-5.5-1.6c-.7-.5-1.4-1.1-1.8-1.8-.5.7-1.1,1.4-1.8,1.9-1.4,1-3.2,1.5-5.5,1.5-3.5,0-6.1-1.1-7.6-3.5-.9-1.6-1.5-3.6-1.5-6.4v-11.6c0-.4.3-.7.7-.7h4.8c.4,0,.7.3.7.7v11.4c0,1.3.2,2.3.6,3.2.5.9,1.4,1.5,2.8,1.5s2.7-.8,3.2-2c.3-.8.5-1.7.5-2.8v-11.3c0-.4.3-.7.7-.7h4.8c.4,0,.7.3.7.7v11.3c0,1.1.1,2,.5,2.8.5,1.3,1.6,2,3.2,2s2.3-.6,2.8-1.5c.5-.9.6-1.8.6-3.2v-11.4c0-.4.3-.7.7-.7h4.8c.4,0,.7.3.7.7v11.6Z"/>
    <path d="M1119,294.1c-.6-.7-1.5-1.1-2.8-1.1-3.7,0-5.1,3.5-5.1,6.6v9.5c0,.4-.3.7-.7.7h-4.8c-.4,0-.7-.3-.7-.7v-30.9c0-.4.3-.7.7-.7h4.8c.4,0,.7.3.7.7v12c1.8-1.9,4.1-2.6,6.4-2.6s4.7.6,6.4,2.1c1.5,1.4,2.5,3.6,2.5,6.8v12.5c0,.4-.3.7-.7.7h-4.9c-.4,0-.7-.3-.7-.7v-10.9c0-1.6-.2-3.1-1.1-4.1Z"/>
    <path d="M1148.4,303.8c.5-.3.9-.2,1.1.2l1.7,3.1c.1.3,0,.7-.3.9-1.8,1.2-5,2.2-8.2,2.2s-6.6-1.1-8.6-3.2c-2-2-3.2-4.9-3.2-8.4s1.2-6,3.2-8c1.8-1.9,4.6-3,8-3s6.7,1.5,8.4,3.8c1.6,2.1,2,5.4,2,8.7,0,.4-.3.7-.7.7h-14.2c.2,1.2.7,2.1,1.4,2.9.9,1,2.5,1.6,4.2,1.6s3.7-.6,5.3-1.5ZM1146.3,296.7c0-1.1-.4-2-1-2.8-.7-.8-1.8-1.3-3.2-1.3s-2.7.5-3.4,1.3c-.7.8-1,1.8-1.2,2.8h8.9Z"/>
    <path d="M1163.3,299.1v10c0,.4-.3.7-.7.7h-4.8c-.4,0-.7-.3-.7-.7v-20.3c0-.4.3-.7.7-.7h4.6c.4,0,.7.3.7.7v1.3h.1c1.3-1.5,3.1-2.4,5.3-2.4s3.9.6,5.3,1.8c.3.3.4.7.2,1l-1.8,3.7c-.2.4-.7.4-1.1.2-1.2-.7-2.3-1.2-3.8-1.2-3.2,0-4.1,3-4.1,6Z"/>
    <path d="M1193.1,303.8c.5-.3.9-.2,1.1.2l1.7,3.1c.1.3,0,.7-.3.9-1.8,1.2-5,2.2-8.2,2.2s-6.6-1.1-8.6-3.2c-2-2-3.2-4.9-3.2-8.4s1.2-6,3.2-8c1.8-1.9,4.6-3,8-3s6.7,1.5,8.4,3.8c1.6,2.1,2,5.4,2,8.7,0,.4-.3.7-.7.7h-14.2c.2,1.2.7,2.1,1.4,2.9.9,1,2.5,1.6,4.2,1.6s3.7-.6,5.3-1.5ZM1191,296.7c0-1.1-.4-2-1-2.8-.7-.8-1.8-1.3-3.2-1.3s-2.7.5-3.4,1.3c-.7.8-1,1.8-1.2,2.8h8.9Z"/>
    <path d="M1204.7,310.3c-2.1,0-3.7-1.7-3.7-3.7s1.7-3.8,3.7-3.8,3.7,1.7,3.7,3.8-1.7,3.7-3.7,3.7Z"/>
  </g>
</svg>